<mxfile host="app.diagrams.net" modified="2024-06-12T19:41:10.561Z" agent="Mozilla/5.0 (X11; Linux x86_64) AppleWebKit/537.36 (KHTML, like Gecko) Chrome/125.0.0.0 Safari/537.36" version="24.5.4" etag="8L7JzutV5mbGLWgHMl01" type="github">
  <diagram name="PÃ¡gina-1" id="urgpFZHD-O2ncRUOvRcA">
    <mxGraphModel>
      <root>
        <mxCell id="0" />
        <mxCell id="1" parent="0" />
      </root>
    </mxGraphModel>
  </diagram>
</mxfile>
